<?xml version="1.0" standalone="no"?>
<!DOCTYPE svg PUBLIC "-//W3C//DTD SVG 20010904//EN"
 "http://www.w3.org/TR/2001/REC-SVG-20010904/DTD/svg10.dtd">
<svg version="1.0" xmlns="http://www.w3.org/2000/svg"
 width="480.000000pt" height="480.000000pt" viewBox="0 0 480.000000 480.000000"
 preserveAspectRatio="xMidYMid meet">
<metadata>
Created by potrace 1.14, written by Peter Selinger 2001-2017
</metadata>
<g transform="translate(0.000000,480.000000) scale(0.100000,-0.100000)"
fill="#000000" stroke="none">
<path d="M1993 4715 c-42 -30 -80 -215 -69 -333 7 -63 6 -63 -16 -56 -76 23
-242 107 -367 184 -47 29 -57 32 -89 24 -55 -14 -73 -48 -79 -146 -3 -46 0
-116 7 -156 6 -39 11 -75 9 -79 -1 -5 -31 -14 -67 -21 -104 -21 -258 -109
-289 -165 -30 -54 2 -122 65 -135 l32 -7 -60 -48 c-105 -85 -193 -221 -238
-369 -69 -223 -51 -472 62 -868 l45 -154 -22 -15 c-183 -127 -250 -360 -159
-555 61 -130 198 -235 327 -251 53 -7 55 -8 55 -39 0 -17 3 -55 6 -83 l7 -53
-472 0 c-512 0 -509 0 -545 -55 -10 -14 -17 -43 -18 -63 0 -65 162 -1065 180
-1102 9 -19 15 -49 13 -67 -3 -36 21 -88 44 -97 9 -3 473 -6 1031 -6 l1014 0
0 30 c0 20 5 30 15 30 10 0 15 -10 15 -30 l0 -30 423 1 c232 1 412 4 400 6
-29 6 -29 18 1 48 21 21 29 23 58 15 34 -10 58 -34 58 -57 0 -10 25 -13 104
-13 96 0 105 2 111 20 13 42 -19 53 -63 20 -15 -11 -42 -23 -59 -26 -29 -6
-33 -4 -33 14 0 12 14 37 31 57 l31 35 92 0 c114 0 152 -17 181 -77 16 -36 24
-43 48 -43 25 0 27 3 21 23 -15 48 -23 64 -48 94 -22 26 -23 33 -12 48 12 16
15 16 43 1 47 -24 89 -71 108 -121 17 -43 20 -45 56 -45 45 0 46 5 23 73 -21
63 -90 137 -161 175 -33 17 -66 43 -74 58 -7 15 -31 38 -51 51 -30 18 -38 30
-38 52 0 40 -18 84 -30 76 -6 -3 -15 -26 -21 -50 -12 -46 -29 -52 -29 -10 0
13 -5 36 -10 51 -14 35 -27 22 -43 -39 -11 -42 -17 -48 -78 -80 l-67 -34 -32
86 c-38 99 -127 281 -177 361 -52 81 -89 116 -140 131 l-45 12 108 38 c277 97
429 208 483 353 11 29 25 98 32 153 l12 100 54 6 c128 13 273 118 334 242 89
181 50 378 -102 519 l-70 65 44 113 c105 266 132 398 124 618 -5 141 -21 225
-60 335 -23 64 -86 185 -124 239 l-35 48 26 27 c28 29 34 77 16 112 -16 29
-87 61 -151 66 -56 5 -57 6 -68 44 -34 114 -149 239 -220 239 -34 0 -70 -25
-81 -56 l-10 -24 -57 29 c-93 46 -233 95 -460 160 -260 75 -333 101 -448 159
-75 38 -105 61 -181 139 -80 82 -95 93 -125 93 -19 0 -44 -7 -56 -15z m-162
-1959 c-108 -108 -120 -132 -92 -184 21 -40 48 -47 191 -46 196 1 351 41 528
134 84 45 92 48 92 29 0 -31 53 -79 88 -79 45 0 181 38 247 69 33 15 91 49
129 75 62 43 69 46 85 32 25 -23 77 -19 146 9 33 14 61 25 62 25 1 0 5 -17 9
-37 12 -71 45 -167 89 -261 25 -52 45 -96 45 -98 0 -7 -182 -2 -245 6 -33 4
-55 8 -50 9 127 19 228 40 237 49 17 17 1 29 -52 42 -86 21 -259 -7 -426 -68
-44 -16 -107 -32 -140 -36 -32 -4 -95 -17 -139 -29 -115 -31 -356 -30 -466 1
-43 13 -103 22 -142 22 -51 0 -85 7 -143 30 -226 90 -514 115 -514 45 0 -16 6
-18 145 -41 55 -9 102 -18 104 -20 2 -2 -20 -4 -51 -4 -30 0 -103 -3 -162 -7
l-107 -6 26 69 c28 76 87 183 140 256 32 44 36 46 65 38 66 -19 260 19 359 70
20 10 38 16 40 14 3 -3 -41 -51 -98 -108z m261 -416 c21 -6 42 -19 48 -30 21
-40 5 -209 -28 -291 -16 -40 -80 -87 -134 -99 -69 -14 -592 -12 -642 3 -52 16
-74 49 -88 129 -9 57 -8 72 6 101 9 19 16 52 17 74 0 21 3 56 7 78 7 39 8 40
57 47 80 10 715 1 757 -12z m1411 -57 c9 -38 18 -91 21 -120 3 -28 10 -60 17
-71 9 -15 10 -35 3 -78 -7 -45 -15 -61 -37 -78 -28 -20 -39 -21 -356 -21
l-327 0 -49 26 c-79 40 -115 130 -115 287 0 125 -15 121 451 122 l377 0 15
-67z m-2518 -43 c22 -65 58 -108 110 -130 l42 -18 7 -102 c4 -56 4 -156 0
-221 l-7 -119 -36 6 c-95 16 -203 91 -244 168 -66 126 -63 247 8 361 26 42 87
105 100 105 2 0 11 -23 20 -50z m2894 8 c166 -162 125 -445 -80 -555 -43 -23
-145 -50 -154 -41 -3 2 -8 65 -11 139 -8 150 1 269 19 269 7 0 29 11 50 25 39
27 77 91 96 163 7 23 17 42 24 42 7 0 33 -19 56 -42z m-1377 22 c51 -15 71
-44 112 -168 42 -126 74 -170 148 -203 52 -23 61 -24 361 -27 253 -3 317 -1
359 12 29 8 54 13 56 11 2 -2 4 -104 4 -227 1 -244 -7 -299 -56 -381 -65 -112
-239 -204 -586 -309 -270 -81 -330 -92 -520 -91 -91 1 -178 5 -195 10 l-30 9
-31 185 c-16 101 -34 197 -38 213 l-7 29 58 -7 c232 -27 319 -27 508 4 33 6
83 11 110 12 42 3 50 6 50 23 0 18 -7 20 -60 22 -43 1 -83 11 -145 37 -114 48
-145 53 -186 31 -31 -17 -35 -17 -58 -1 -35 22 -42 21 -174 -26 l-117 -43
-406 3 -407 3 -6 22 c-14 50 -18 193 -11 349 l7 167 28 -21 c44 -32 96 -37
386 -38 297 0 357 7 424 48 50 31 80 81 126 215 14 43 37 91 51 107 21 25 32
30 86 33 34 2 76 4 92 5 17 1 47 -3 67 -8z m-167 -860 c8 -13 61 -13 100 1 26
10 43 8 101 -11 67 -23 68 -24 39 -33 -38 -12 -317 -15 -370 -3 l-40 8 60 23
c67 25 101 30 110 15z m-340 -104 c16 -11 33 -100 106 -552 77 -480 85 -541
73 -562 l-14 -22 -885 0 c-975 0 -908 -5 -920 63 -3 18 -30 185 -60 372 -29
187 -66 416 -81 509 l-27 169 22 19 c22 17 63 18 895 18 722 0 875 -2 891 -14z
m941 -477 c112 -19 119 -24 172 -107 52 -81 85 -143 126 -236 l25 -55 -57 38
c-31 22 -78 49 -104 62 -40 19 -49 20 -63 9 -21 -18 -14 -45 34 -123 l38 -63
-42 -15 -43 -16 -6 36 c-3 20 -6 57 -6 83 0 66 -17 98 -50 98 -52 0 -55 -14
-41 -197 10 -121 10 -168 2 -176 -7 -7 -62 -12 -144 -12 -72 -1 -148 -5 -167
-9 l-35 -7 3 43 c3 36 -1 48 -23 70 -15 15 -40 30 -56 33 l-29 7 0 105 c0 90
3 109 20 130 26 34 26 96 -1 175 -11 33 -18 67 -15 74 12 30 43 13 86 -46 24
-33 47 -60 51 -60 4 0 61 38 126 85 65 46 123 85 129 85 6 0 37 -5 70 -11z
m-577 -61 c5 -13 5 -28 0 -34 -10 -13 -39 -130 -39 -161 0 -13 9 -32 20 -43
18 -18 20 -33 20 -130 l0 -110 -55 0 c-30 0 -55 3 -55 8 0 4 -13 87 -29 185
l-29 178 29 32 c16 17 40 47 52 64 27 41 73 46 86 11z m90 -91 c14 -40 17 -99
7 -115 -11 -19 -76 -15 -83 5 -9 22 14 125 29 135 24 15 36 8 47 -25z m-19
-282 c0 -91 -2 -105 -16 -105 -14 0 -16 8 -10 53 3 28 6 76 6 105 0 28 5 52
10 52 6 0 10 -42 10 -105z m884 -107 c19 -45 19 -45 -4 -75 -16 -23 -51 -42
-136 -77 -121 -48 -134 -52 -134 -36 0 5 19 14 43 20 68 17 87 28 87 50 0 14
-7 20 -22 20 l-21 0 21 23 c25 26 29 65 8 73 -12 5 -11 9 5 25 21 21 17 41
-27 110 l-26 42 93 -65 c79 -55 97 -73 113 -110z m296 8 c0 -7 6 -19 14 -25
11 -9 18 -8 31 6 17 16 19 16 41 -11 13 -15 24 -40 24 -56 0 -25 -5 -30 -36
-36 -42 -8 -171 3 -196 17 -45 24 -2 105 60 112 20 2 43 4 50 5 6 1 12 -4 12
-12z m-520 -59 c0 -2 -13 -16 -30 -32 l-30 -29 0 32 c0 29 3 32 30 32 17 0 30
-1 30 -3z m-795 -48 c-88 -34 -87 -34 -74 -5 11 24 18 26 68 26 l56 -1 -50
-20z m208 7 c3 -8 0 -19 -6 -24 -22 -16 -102 -34 -142 -30 -39 3 -39 4 45 35
100 38 96 37 103 19z m922 -23 c11 -15 10 -22 -7 -45 -22 -32 -27 -33 -52 -15
-17 12 -16 15 9 45 31 37 34 38 50 15z m-1151 -81 c-21 -5 -28 4 -20 24 6 16
8 15 21 -2 12 -16 12 -19 -1 -22z m-69 -2 c0 -13 -109 -15 -907 -18 -904 -2
-908 -2 -908 18 0 20 4 20 908 18 798 -3 907 -5 907 -18z m315 -10 c-34 -11
-60 -11 -35 0 11 5 29 8 40 8 16 0 15 -2 -5 -8z"/>
<path d="M1513 2240 c5 -38 4 -40 -16 -35 -12 4 -34 15 -49 26 -15 10 -29 19
-32 19 -7 0 12 -61 24 -75 7 -8 9 -22 6 -33 -7 -22 67 -132 90 -132 26 0 27
30 1 69 -20 30 -23 42 -14 49 22 17 71 39 104 47 l33 6 -15 -28 c-19 -36 -19
-116 0 -153 39 -75 147 -104 215 -57 59 39 75 71 74 142 0 61 0 63 20 53 12
-6 40 -29 64 -50 45 -42 65 -45 70 -11 4 28 -87 108 -163 144 -88 42 -179 52
-276 31 -78 -16 -78 -16 -102 6 -33 31 -40 28 -34 -18z"/>
<path d="M3282 2257 c-22 -21 -22 -21 -104 -4 -107 22 -185 11 -284 -37 -86
-43 -173 -128 -154 -151 15 -18 28 -11 95 44 27 23 52 41 55 41 4 0 4 -26 2
-57 -3 -49 0 -64 20 -93 55 -80 135 -101 213 -55 69 40 93 121 60 201 l-15 36
28 -7 c44 -10 112 -46 112 -58 0 -7 -9 -23 -20 -37 -22 -29 -26 -70 -7 -70 28
0 100 96 96 127 -2 10 5 32 14 50 9 18 17 39 17 48 0 14 -3 14 -27 -3 -16 -11
-38 -23 -51 -27 -22 -6 -23 -5 -17 28 8 43 -5 53 -33 24z"/>
<path d="M2214 2115 c-3 -8 1 -24 10 -37 19 -27 21 -118 4 -140 -7 -8 -34 -27
-60 -41 -102 -59 -115 -193 -24 -253 14 -8 46 -17 73 -18 26 -2 66 -12 88 -22
52 -24 139 -24 185 1 23 12 53 18 85 16 62 -2 112 23 137 70 22 42 23 67 2
119 -11 27 -22 40 -35 40 -22 0 -24 -16 -4 -50 23 -41 18 -78 -15 -112 -27
-27 -36 -29 -83 -27 -36 3 -64 -2 -91 -15 -63 -30 -107 -31 -162 -5 -27 12
-63 22 -80 20 -78 -6 -133 51 -120 123 7 38 52 82 99 99 53 18 75 130 41 202
-17 37 -42 52 -50 30z"/>
<path d="M2247 1243 c-26 -26 35 -87 103 -103 38 -9 58 -9 85 0 43 14 105 66
105 86 0 27 -30 27 -58 1 -58 -55 -129 -57 -178 -6 -27 29 -44 35 -57 22z"/>
<path d="M1921 1196 c-15 -18 137 -926 157 -933 40 -16 38 11 -36 460 -41 243
-75 449 -78 459 -6 22 -30 30 -43 14z"/>
<path d="M2564 477 c-3 -8 -4 -47 -2 -88 l3 -74 159 -3 c121 -2 161 1 168 10
9 15 11 129 2 152 -5 14 -29 16 -165 16 -124 0 -161 -3 -165 -13z m286 -77 l0
-50 -120 0 -120 0 0 50 0 50 120 0 120 0 0 -50z"/>
<path d="M3557 679 c-58 -44 -106 -169 -77 -204 18 -22 34 -5 58 63 28 76 55
104 95 100 47 -5 70 -51 75 -155 3 -63 8 -86 20 -90 31 -12 44 27 38 109 -10
135 -53 198 -135 198 -30 -1 -55 -8 -74 -21z"/>
<path d="M4093 446 c-106 -51 -173 -107 -173 -142 0 -33 12 -30 83 20 59 42
147 91 147 82 0 -2 -25 -46 -55 -97 -30 -51 -55 -98 -55 -104 0 -25 27 -35 99
-35 l76 -1 -47 -25 c-33 -17 -48 -31 -48 -45 0 -31 24 -32 81 -4 106 53 141
94 106 123 -7 6 -52 12 -100 14 l-86 3 45 75 c38 63 74 133 74 146 0 8 -33 34
-44 34 -7 0 -53 -20 -103 -44z"/>
</g>
</svg>
