<svg xmlns="http://www.w3.org/2000/svg" width="16" height="16" viewBox="0 0 16 16"><path fill="#3087e1" d="M6.766 11.695C4.703 11.437 3.25 9.904 3.25 7.92c0-.806.281-1.677.75-2.258c-.203-.532-.172-1.662.062-2.129c.626-.081 1.469.258 1.969.726c.594-.194 1.219-.291 1.985-.291c.765 0 1.39.097 1.953.274c.484-.451 1.343-.79 1.969-.709c.218.435.25 1.564.046 2.113c.5.613.766 1.436.766 2.274c0 1.984-1.453 3.485-3.547 3.759c.531.355.891 1.129.891 2.016v1.678c0 .484.39.758.859.564C13.781 14.824 16 11.905 16 8.291C16 3.726 12.406 0 7.984 0S0 3.726 0 8.291c0 3.581 2.203 6.55 5.172 7.663A.595.595 0 0 0 6 15.389v-1.291c-.219.097-.5.162-.75.162c-1.031 0-1.641-.581-2.078-1.662c-.172-.435-.36-.693-.719-.742c-.187-.016-.25-.097-.25-.193c0-.194.313-.339.625-.339c.453 0 .844.29 1.25.887c.313.468.641.678 1.031.678c.391 0 .641-.146 1-.516c.266-.275.469-.517.657-.678"/></svg>